nColumns=19
nRows=27
DataType=double
version=3
OpenSimVersion=4.1
endheader
time	ground_force_calcn_l_vx	ground_force_calcn_l_vy	ground_force_calcn_l_vz	ground_force_calcn_l_px	ground_force_calcn_l_py	ground_force_calcn_l_pz	ground_force_calcn_l_mx	ground_force_calcn_l_my	ground_force_calcn_l_mz	ground_force_calcn_r_vx	ground_force_calcn_r_vy	ground_force_calcn_r_vz	ground_force_calcn_r_px	ground_force_calcn_r_py	ground_force_calcn_r_pz	ground_force_calcn_r_mx	ground_force_calcn_r_my	ground_force_calcn_r_mz
5.365	-4.75605	368.885	-27.9194	-0.111701	-1.23014e-17	0.136663	0.0565896	-4.38916	0.332198	-4.4231	343.857	27.7436	-0.0948044	-1.04946e-17	-0.155501	-0.0152081	1.1823	0.0953915
5.37499	-4.69691	368.938	-27.7777	-0.11164	-1.22952e-17	0.136847	0.0558563	-4.38746	0.330336	-4.3958	343.984	27.9096	-0.094609	-1.04718e-17	-0.155469	-0.0155945	1.22031	0.0990115
5.38498	-4.63479	368.984	-27.661	-0.111596	-1.22909e-17	0.137	0.0549539	-4.37498	0.327972	-4.37933	344.14	28.0546	-0.0944285	-1.04509e-17	-0.155428	-0.0158722	1.24728	0.10168
5.39497	-4.57601	369	-27.5871	-0.111573	-1.22891e-17	0.137103	0.0540405	-4.35771	0.325789	-4.38341	344.328	28.1643	-0.0942752	-1.04334e-17	-0.155384	-0.0160482	1.26063	0.103113
5.40496	-4.53107	368.968	-27.572	-0.111574	-1.22897e-17	0.137135	0.0532772	-4.33841	0.324198	-4.41236	344.539	28.2361	-0.0941584	-1.04204e-17	-0.155339	-0.0161307	1.25957	0.103225
5.41495	-4.50082	368.884	-27.61	-0.111602	-1.22929e-17	0.137105	0.0527484	-4.32322	0.323581	-4.46722	344.774	28.276	-0.0940776	-1.04117e-17	-0.155299	-0.0161888	1.24943	0.10247
5.42494	-4.49182	368.754	-27.6833	-0.111655	-1.22987e-17	0.137028	0.0525125	-4.31099	0.323637	-4.54993	345.022	28.29	-0.0940432	-1.04084e-17	-0.155274	-0.016266	1.23346	0.101137
5.43493	-4.50751	368.578	-27.7763	-0.111751	-1.23092e-17	0.136925	0.0526164	-4.30243	0.324234	-4.65466	345.275	28.2933	-0.0940481	-1.04094e-17	-0.155265	-0.0164151	1.21765	0.0997791
5.44493	-4.54065	368.378	-27.8804	-0.111867	-1.23217e-17	0.136803	0.0529455	-4.29542	0.325095	-4.77148	345.507	28.2854	-0.0940831	-1.04137e-17	-0.155259	-0.0165807	1.20062	0.0982906
5.45492	-4.57928	368.174	-27.9857	-0.111974	-1.23334e-17	0.136674	0.0533312	-4.28782	0.325927	-4.89563	345.687	28.2646	-0.0941182	-1.04183e-17	-0.155247	-0.0166918	1.17863	0.0963688
5.46491	-4.61743	367.974	-28.0942	-0.112062	-1.23427e-17	0.136544	0.0537757	-4.28552	0.327193	-5.02053	345.803	28.2351	-0.0941249	-1.04197e-17	-0.155235	-0.0167798	1.15576	0.0943684
5.4749	-4.64851	367.776	-28.2003	-0.112122	-1.23489e-17	0.136422	0.0541832	-4.28681	0.328704	-5.14273	345.85	28.1969	-0.0941091	-1.04186e-17	-0.155231	-0.0168357	1.13221	0.0923081
5.48489	-4.67139	367.572	-28.3021	-0.112166	-1.23533e-17	0.136299	0.0544302	-4.28289	0.329772	-5.24875	345.839	28.1336	-0.0940698	-1.04151e-17	-0.15523	-0.0166814	1.09914	0.0894135
5.49488	-4.68392	367.378	-28.3887	-0.112183	-1.2355e-17	0.136183	0.0545223	-4.2764	0.330454	-5.32755	345.774	28.0488	-0.0940051	-1.04092e-17	-0.155232	-0.0162729	1.05616	0.0856744
5.50487	-4.69018	367.209	-28.4649	-0.112175	-1.23539e-17	0.136072	0.054535	-4.26972	0.330975	-5.37936	345.663	27.9428	-0.0939405	-1.04034e-17	-0.155237	-0.0156639	1.00652	0.0813653
5.51486	-4.69231	367.066	-28.5317	-0.112143	-1.23502e-17	0.13595	0.0544328	-4.25812	0.33098	-5.3935	345.537	27.8157	-0.0938888	-1.0399e-17	-0.155239	-0.0149186	0.955765	0.0769391
5.52485	-4.69074	366.952	-28.5825	-0.112094	-1.23451e-17	0.135816	0.0541502	-4.23612	0.329959	-5.36861	345.406	27.6863	-0.0938438	-1.03953e-17	-0.155236	-0.0141491	0.910326	0.072968
5.53484	-4.68728	366.88	-28.6093	-0.112043	-1.23399e-17	0.13569	0.0537849	-4.20983	0.328281	-5.31607	345.276	27.5737	-0.093807	-1.03922e-17	-0.155236	-0.0134551	0.873901	0.0697895
5.54483	-4.67824	366.853	-28.6187	-0.111996	-1.23352e-17	0.1356	0.0533972	-4.18724	0.326653	-5.25516	345.149	27.4928	-0.093782	-1.03901e-17	-0.155249	-0.0129255	0.84892	0.0676206
5.55482	-4.66551	366.856	-28.634	-0.111961	-1.23316e-17	0.135546	0.0530636	-4.17246	0.325672	-5.20732	345.028	27.4432	-0.0937862	-1.03909e-17	-0.155283	-0.0126665	0.83926	0.0667539
5.56481	-4.64591	366.879	-28.6718	-0.111941	-1.23292e-17	0.135539	0.0528638	-4.17456	0.326244	-5.19004	344.925	27.4113	-0.0938362	-1.03962e-17	-0.155353	-0.0127878	0.849866	0.0675392
5.5748	-4.62459	366.922	-28.7409	-0.111945	-1.23291e-17	0.135578	0.0528345	-4.19197	0.328356	-5.21161	344.832	27.3993	-0.0939367	-1.04066e-17	-0.155459	-0.0132875	0.879185	0.0698575
5.5848	-4.6098	366.968	-28.8375	-0.111998	-1.2334e-17	0.135655	0.0530365	-4.22202	0.33178	-5.27014	344.757	27.416	-0.0940861	-1.04221e-17	-0.155588	-0.0140709	0.92048	0.0731988
5.59479	-4.59914	367.013	-28.9388	-0.112101	-1.2344e-17	0.13578	0.0534103	-4.26216	0.336069	-5.36003	344.706	27.4732	-0.0942721	-1.04414e-17	-0.155727	-0.0150701	0.969166	0.0772427
5.60478	-4.59396	367.063	-29.0183	-0.112241	-1.23582e-17	0.135952	0.0539397	-4.30985	0.340716	-5.46953	344.679	27.5696	-0.0944693	-1.0462e-17	-0.15586	-0.0161065	1.015	0.0811861
5.61477	-4.59247	367.128	-29.0729	-0.112406	-1.23751e-17	0.136147	0.0545666	-4.36213	0.345437	-5.58189	344.671	27.6894	-0.0946646	-1.04827e-17	-0.155972	-0.0170327	1.05174	0.0844921
5.62476	-4.59492	367.214	-29.11	-0.11258	-1.2393e-17	0.136339	0.0552584	-4.4161	0.350076	-5.69084	344.675	27.8226	-0.0948616	-1.05038e-17	-0.15605	-0.0177603	1.07568	0.0868302
